<svg width="31" height="25" viewBox="0 0 31 25" fill="none" xmlns="http://www.w3.org/2000/svg">
<path d="M12.2615 15.7734C12.2615 16.8549 11.6981 18.6247 10.3646 18.6247C9.031 18.6247 8.4676 16.8549 8.4676 15.7734C8.4676 14.6919 9.031 12.9221 10.3646 12.9221C11.6981 12.9221 12.2615 14.6919 12.2615 15.7734ZM27.4527 13.1601C27.4527 14.8109 27.2873 16.56 26.5482 18.0762C24.5892 22.0401 19.2033 21.9469 15.3473 21.9469C11.4293 21.9469 5.72295 22.0867 3.68644 18.0762C2.93179 16.5755 2.64233 14.8109 2.64233 13.1601C2.64233 10.9919 3.3608 8.94265 4.7874 7.28154C4.51862 6.46392 4.3894 5.6049 4.3894 4.75623C4.3894 3.64365 4.64267 3.08477 5.14405 2.07568C7.48552 2.07568 8.98448 2.54142 10.7677 3.93861C12.2667 3.58155 13.807 3.42113 15.3525 3.42113C16.7481 3.42113 18.154 3.5712 19.5082 3.89722C21.2656 2.51554 22.7646 2.07568 25.0802 2.07568C25.5868 3.08477 25.8349 3.64365 25.8349 4.75623C25.8349 5.6049 25.7005 6.4484 25.4369 7.25049C26.8583 8.92713 27.4527 10.9919 27.4527 13.1601ZM24.1291 15.7734C24.1291 13.5017 22.7491 11.499 20.3301 11.499C19.3531 11.499 18.4176 11.675 17.4355 11.8095C16.6654 11.9285 15.8952 11.9751 15.1044 11.9751C14.3187 11.9751 13.5486 11.9285 12.7732 11.8095C11.8067 11.675 10.8608 11.499 9.87869 11.499C7.45968 11.499 6.0796 13.5017 6.0796 15.7734C6.0796 20.3169 10.2353 21.0155 13.8535 21.0155H16.3449C19.9786 21.0155 24.1291 20.3221 24.1291 15.7734ZM19.8597 12.9221C18.5261 12.9221 17.9627 14.6919 17.9627 15.7734C17.9627 16.8549 18.5261 18.6247 19.8597 18.6247C21.1933 18.6247 21.7567 16.8549 21.7567 15.7734C21.7567 14.6919 21.1933 12.9221 19.8597 12.9221Z" fill="#BABABA"/>
</svg>
