<svg width="31" height="25" viewBox="0 0 31 25" fill="none" xmlns="http://www.w3.org/2000/svg">
<path fill-rule="evenodd" clip-rule="evenodd" d="M24.7748 3.69644C25.873 4.01022 26.6575 4.79467 26.9713 5.89291C27.5988 7.93248 27.5988 12.0116 27.5988 12.0116C27.5988 12.0116 27.5988 16.0908 27.1282 18.1304C26.8144 19.2286 26.0299 20.013 24.9317 20.3268C22.8921 20.7975 15.0476 20.7975 15.0476 20.7975C15.0476 20.7975 7.04616 20.7975 5.16347 20.3268C4.06524 20.013 3.28079 19.2286 2.96701 18.1304C2.49634 16.0908 2.49634 12.0116 2.49634 12.0116C2.49634 12.0116 2.49633 7.93248 2.81011 5.89291C3.12389 4.79467 3.90836 4.01022 5.00659 3.69644C7.04617 3.22577 14.8907 3.22577 14.8907 3.22577C14.8907 3.22577 22.8921 3.22577 24.7748 3.69644ZM12.5373 8.93553C12.5373 8.62841 12.8691 8.43586 13.1358 8.58824L18.519 11.6643C18.7877 11.8179 18.7877 12.2054 18.519 12.3589L13.1358 15.435C12.8691 15.5874 12.5373 15.3949 12.5373 15.0877V8.93553Z" fill="#BABABA"/>
</svg>
