<svg width="24" height="31" viewBox="0 0 24 31" fill="none" xmlns="http://www.w3.org/2000/svg">
<path d="M23.9585 0.672028C23.9221 0.590675 23.863 0.521657 23.7882 0.473384C23.7134 0.425111 23.6262 0.399667 23.5373 0.400153H10.4995C10.4212 0.400284 10.3441 0.420092 10.2755 0.457764C10.2068 0.495435 10.1486 0.549766 10.1064 0.615778L0.0822939 16.5533C0.0340351 16.6227 0.00583936 16.7041 0.000813382 16.7885C-0.00421259 16.8729 0.0141262 16.9571 0.0538094 17.0317C0.0934926 17.1064 0.15298 17.1686 0.225716 17.2116C0.298451 17.2545 0.381612 17.2765 0.466035 17.2751H7.64479L1.30839 29.697C1.27201 29.7709 1.25491 29.8528 1.25869 29.9351C1.26247 30.0174 1.287 30.0973 1.33 30.1676C1.37299 30.2378 1.43305 30.2959 1.50456 30.3366C1.57607 30.3773 1.6567 30.3991 1.73893 30.4001H4.54679C4.61175 30.4006 4.67608 30.3875 4.7357 30.3616C4.79532 30.3358 4.84892 30.2978 4.89309 30.2501L21.3378 12.447C21.4031 12.3804 21.447 12.2957 21.4639 12.2039C21.4809 12.1121 21.47 12.0173 21.4328 11.9316C21.3956 11.846 21.3337 11.7735 21.2551 11.7233C21.1765 11.6732 21.0847 11.6477 20.9915 11.6501H14.6832L23.8836 1.1689C23.9429 1.10232 23.9816 1.01987 23.9949 0.93163C24.0082 0.843391 23.9955 0.753184 23.9585 0.672028Z" fill="#2B788B"/>
</svg>
