<svg width="31" height="25" viewBox="0 0 31 25" fill="none" xmlns="http://www.w3.org/2000/svg">
<path d="M8.756 13.4984H16.6925V21.1933H13.4213L13.0309 17.9034C12.6592 19.0806 11.9963 19.9542 11.0422 20.5241C10.088 21.0941 8.92328 21.3791 7.54786 21.3791C6.29636 21.3791 5.18115 21.1003 4.20225 20.5427C3.23574 19.9851 2.47368 19.1859 1.91608 18.145C1.37087 17.1042 1.09827 15.8899 1.09827 14.502C1.09827 12.284 1.76119 10.5307 3.08705 9.242C4.4129 7.95332 6.47603 7.30898 9.27643 7.30898C10.8749 7.30898 12.2813 7.5692 13.4956 8.08962C14.7223 8.61005 15.7632 9.41548 16.6182 10.5059C16.0606 10.7909 14.9702 11.3609 13.3469 12.2159L12.8823 12.4761C12.399 11.9928 11.8352 11.6335 11.1909 11.3981C10.5465 11.1502 9.86501 11.0263 9.14632 11.0263C7.95677 11.0263 7.0708 11.3423 6.48842 11.9742C5.90603 12.5938 5.61484 13.3621 5.61484 14.279C5.61484 15.2703 5.92462 16.0695 6.54418 16.6767C7.17613 17.2839 8.13644 17.5874 9.42512 17.5874C9.98273 17.5874 10.5217 17.5069 11.0422 17.3458C11.575 17.1847 12.0211 16.9059 12.3804 16.5094H8.756V13.4984Z" fill="#BABABA"/>
<path d="M28.9969 6.54787C27.0515 6.48591 25.1619 6.44874 23.328 6.43635V16.1386H18.6813V6.43635C16.835 6.44874 14.9516 6.48591 13.0309 6.54787V2.64466H28.9969V6.54787Z" fill="#BABABA"/>
</svg>
