<svg width="33" height="32" viewBox="0 0 33 32" fill="none" xmlns="http://www.w3.org/2000/svg">
<path d="M7.21427 23.6667V18.6454L12.6276 22.1827C13.7932 22.9442 15.1553 23.3498 16.5476 23.3498C17.9399 23.3498 19.302 22.9442 20.4676 22.1827L25.8809 18.6454V23.6667C25.8809 23.8831 25.8108 24.0936 25.6809 24.2667L25.6796 24.268L25.6783 24.2707L25.6743 24.276L25.6623 24.2893L25.6463 24.3107L25.6289 24.3333L25.5143 24.468C25.3798 24.6207 25.2387 24.7675 25.0916 24.908C24.7223 25.264 24.1716 25.7267 23.4249 26.1853C21.9303 27.1053 19.6663 28 16.5476 28C13.4289 28 11.1663 27.1067 9.66894 26.1853C9.06978 25.8202 8.51109 25.3925 8.00227 24.9093C7.80042 24.7146 7.6103 24.508 7.43294 24.2907L7.42094 24.2773L7.41694 24.2707V24.268C7.28632 24.0947 7.21523 23.8837 7.21427 23.6667ZM30.0943 13.504L19.3743 20.508C18.5339 21.0573 17.5516 21.3498 16.5476 21.3498C15.5436 21.3498 14.5614 21.0573 13.7209 20.508L4.54761 14.5147V21.6667C4.54761 21.9319 4.44225 22.1863 4.25471 22.3738C4.06718 22.5613 3.81282 22.6667 3.54761 22.6667C3.28239 22.6667 3.02804 22.5613 2.8405 22.3738C2.65296 22.1863 2.54761 21.9319 2.54761 21.6667V13.3333C2.54761 13.216 2.56761 13.104 2.60494 13C2.52985 12.7875 2.52876 12.5558 2.60185 12.3426C2.67494 12.1294 2.81793 11.9471 3.00761 11.8253L13.7596 4.93202C14.5917 4.3987 15.5593 4.11523 16.5476 4.11523C17.5359 4.11523 18.5035 4.3987 19.3356 4.93202L30.0876 11.8253C30.228 11.9155 30.3437 12.0394 30.424 12.1857C30.5043 12.3319 30.5467 12.496 30.5473 12.6629C30.548 12.8297 30.5069 12.9941 30.4278 13.141C30.3486 13.288 30.234 13.4127 30.0943 13.504Z" fill="black"/>
</svg>
